<svg width="399" height="87" viewBox="0 0 399 87" fill="none" xmlns="http://www.w3.org/2000/svg">
<path d="M236.555 86.68C234.827 86.68 233.281 86.3067 231.915 85.56C230.571 84.8134 229.515 83.7894 228.747 82.488C227.979 81.1867 227.595 79.6934 227.595 78.008C227.595 76.3227 227.979 74.8294 228.747 73.528C229.515 72.2267 230.571 71.2134 231.915 70.488C233.281 69.7414 234.827 69.368 236.555 69.368C238.091 69.368 239.457 69.6774 240.651 70.296C241.867 70.8934 242.806 71.7894 243.467 72.984L241.131 74.488C240.577 73.656 239.894 73.048 239.083 72.664C238.294 72.2587 237.441 72.056 236.523 72.056C235.414 72.056 234.422 72.3014 233.547 72.792C232.673 73.2827 231.979 73.976 231.467 74.872C230.955 75.7467 230.699 76.792 230.699 78.008C230.699 79.224 230.955 80.28 231.467 81.176C231.979 82.072 232.673 82.7654 233.547 83.256C234.422 83.7467 235.414 83.992 236.523 83.992C237.441 83.992 238.294 83.8 239.083 83.416C239.894 83.0107 240.577 82.392 241.131 81.56L243.467 83.032C242.806 84.2054 241.867 85.112 240.651 85.752C239.457 86.3707 238.091 86.68 236.555 86.68Z" fill="#8A57C9"/>
<path d="M220.226 86.488V69.528H223.298V86.488H220.226ZM221.762 66.264C221.165 66.264 220.663 66.072 220.258 65.688C219.874 65.304 219.682 64.8347 219.682 64.28C219.682 63.704 219.874 63.224 220.258 62.84C220.663 62.456 221.165 62.264 221.762 62.264C222.359 62.264 222.85 62.456 223.234 62.84C223.639 63.2027 223.842 63.6614 223.842 64.216C223.842 64.792 223.65 65.2827 223.266 65.688C222.882 66.072 222.381 66.264 221.762 66.264Z" fill="#8A57C9"/>
<path d="M207.501 69.368C208.887 69.368 210.103 69.6347 211.149 70.168C212.215 70.7014 213.047 71.512 213.645 72.6C214.242 73.688 214.541 75.064 214.541 76.728V86.488H211.469V77.08C211.469 75.4374 211.063 74.2 210.253 73.368C209.463 72.536 208.343 72.12 206.893 72.12C205.805 72.12 204.855 72.3334 204.045 72.76C203.234 73.1867 202.605 73.816 202.157 74.648C201.73 75.48 201.517 76.5147 201.517 77.752V86.488H198.445V69.528H201.389V74.104L200.909 72.888C201.463 71.7787 202.317 70.9147 203.469 70.296C204.621 69.6774 205.965 69.368 207.501 69.368Z" fill="#8A57C9"/>
<path d="M189.507 86.488V69.528H192.579V86.488H189.507ZM191.043 66.264C190.446 66.264 189.945 66.072 189.539 65.688C189.155 65.304 188.963 64.8347 188.963 64.28C188.963 63.704 189.155 63.224 189.539 62.84C189.945 62.456 190.446 62.264 191.043 62.264C191.641 62.264 192.131 62.456 192.515 62.84C192.921 63.2027 193.123 63.6614 193.123 64.216C193.123 64.792 192.931 65.2827 192.547 65.688C192.163 66.072 191.662 66.264 191.043 66.264Z" fill="#8A57C9"/>
<path d="M180.57 86.488V62.744H183.642V86.488H180.57Z" fill="#8A57C9"/>
<path d="M169.899 86.68C168.171 86.68 166.625 86.3067 165.259 85.56C163.915 84.8134 162.859 83.7894 162.091 82.488C161.323 81.1867 160.939 79.6934 160.939 78.008C160.939 76.3227 161.323 74.8294 162.091 73.528C162.859 72.2267 163.915 71.2134 165.259 70.488C166.625 69.7414 168.171 69.368 169.899 69.368C171.435 69.368 172.801 69.6774 173.995 70.296C175.211 70.8934 176.15 71.7894 176.811 72.984L174.475 74.488C173.921 73.656 173.238 73.048 172.427 72.664C171.638 72.2587 170.785 72.056 169.867 72.056C168.758 72.056 167.766 72.3014 166.891 72.792C166.017 73.2827 165.323 73.976 164.811 74.872C164.299 75.7467 164.043 76.792 164.043 78.008C164.043 79.224 164.299 80.28 164.811 81.176C165.323 82.072 166.017 82.7654 166.891 83.256C167.766 83.7467 168.758 83.992 169.867 83.992C170.785 83.992 171.638 83.8 172.427 83.416C173.238 83.0107 173.921 82.392 174.475 81.56L176.811 83.032C176.15 84.2054 175.211 85.112 173.995 85.752C172.801 86.3707 171.435 86.68 169.899 86.68Z" fill="#8A57C9"/>
<path d="M392.694 47.488V40.32L392.374 38.976V26.752C392.374 24.1494 391.606 22.144 390.07 20.736C388.577 19.2854 386.315 18.56 383.286 18.56C381.281 18.56 379.318 18.9014 377.398 19.584C375.478 20.224 373.857 21.0987 372.534 22.208L369.974 17.6C371.723 16.192 373.814 15.1254 376.246 14.4C378.721 13.632 381.302 13.248 383.99 13.248C388.641 13.248 392.225 14.3787 394.742 16.64C397.259 18.9014 398.518 22.3574 398.518 27.008V47.488H392.694ZM381.558 47.872C379.041 47.872 376.822 47.4454 374.902 46.592C373.025 45.7387 371.574 44.5654 370.55 43.072C369.526 41.536 369.014 39.8081 369.014 37.8881C369.014 36.0534 369.441 34.3894 370.294 32.896C371.19 31.4027 372.619 30.208 374.582 29.312C376.587 28.416 379.275 27.968 382.646 27.968H393.398V32.384H382.902C379.83 32.384 377.761 32.896 376.694 33.92C375.627 34.944 375.094 36.1814 375.094 37.632C375.094 39.296 375.755 40.64 377.078 41.664C378.401 42.6454 380.235 43.136 382.582 43.136C384.886 43.136 386.891 42.624 388.598 41.6C390.347 40.576 391.606 39.0827 392.374 37.12L393.59 41.344C392.779 43.3494 391.35 44.9494 389.302 46.144C387.254 47.296 384.673 47.872 381.558 47.872Z" fill="#8A57C9"/>
<path d="M345.847 47.488L330.999 13.568H337.399L350.583 44.288H347.511L360.951 13.568H366.967L352.119 47.488H345.847Z" fill="#8A57C9"/>
<path d="M311.791 47.872C308.378 47.872 305.348 47.1254 302.703 45.632C300.058 44.1387 297.967 42.0907 296.431 39.488C294.895 36.8427 294.127 33.8561 294.127 30.528C294.127 27.1574 294.895 24.1707 296.431 21.568C297.967 18.9654 300.058 16.9387 302.703 15.488C305.348 13.9947 308.378 13.248 311.791 13.248C315.162 13.248 318.17 13.9947 320.815 15.488C323.503 16.9387 325.594 18.9654 327.087 21.568C328.623 24.128 329.391 27.1147 329.391 30.528C329.391 33.8987 328.623 36.8854 327.087 39.488C325.594 42.0907 323.503 44.1387 320.815 45.632C318.17 47.1254 315.162 47.872 311.791 47.872ZM311.791 42.496C313.967 42.496 315.908 42.0054 317.615 41.024C319.364 40.0427 320.73 38.656 321.711 36.864C322.692 35.0294 323.183 32.9174 323.183 30.528C323.183 28.096 322.692 26.0054 321.711 24.256C320.73 22.464 319.364 21.0774 317.615 20.096C315.908 19.1147 313.967 18.624 311.791 18.624C309.615 18.624 307.674 19.1147 305.967 20.096C304.26 21.0774 302.895 22.464 301.871 24.256C300.847 26.0054 300.335 28.096 300.335 30.528C300.335 32.9174 300.847 35.0294 301.871 36.864C302.895 38.656 304.26 40.0427 305.967 41.024C307.674 42.0054 309.615 42.496 311.791 42.496Z" fill="#8A57C9"/>
<path d="M264.192 39.296L264.32 31.424L283.84 13.568H291.264L276.288 28.288L272.96 31.104L264.192 39.296ZM259.2 47.488V0H265.344V47.488H259.2ZM285.12 47.488L271.808 30.976L275.776 26.048L292.672 47.488H285.12Z" fill="#8A57C9"/>
<path d="M235.117 47.872C231.49 47.872 228.29 47.1254 225.517 45.632C222.786 44.1387 220.653 42.0907 219.117 39.488C217.624 36.8854 216.877 33.8987 216.877 30.528C216.877 27.1574 217.602 24.1707 219.053 21.568C220.546 18.9654 222.573 16.9387 225.133 15.488C227.736 13.9947 230.658 13.248 233.901 13.248C237.186 13.248 240.088 13.9734 242.605 15.424C245.122 16.8747 247.085 18.9227 248.493 21.568C249.944 24.1707 250.669 27.2214 250.669 30.72C250.669 30.976 250.648 31.2747 250.605 31.616C250.605 31.9574 250.584 32.2774 250.541 32.576H221.677V28.16H247.341L244.845 29.696C244.888 27.52 244.44 25.5787 243.501 23.872C242.562 22.1654 241.261 20.8427 239.597 19.904C237.976 18.9227 236.077 18.432 233.901 18.432C231.768 18.432 229.869 18.9227 228.205 19.904C226.541 20.8427 225.24 22.1867 224.301 23.936C223.362 25.6427 222.893 27.6054 222.893 29.824V30.848C222.893 33.1094 223.405 35.136 224.429 36.928C225.496 38.6774 226.968 40.0427 228.845 41.024C230.722 42.0054 232.877 42.496 235.309 42.496C237.314 42.496 239.128 42.1547 240.749 41.472C242.413 40.7894 243.864 39.7654 245.101 38.4L248.493 42.368C246.957 44.16 245.037 45.5254 242.733 46.4641C240.472 47.4027 237.933 47.872 235.117 47.872Z" fill="#8A57C9"/>
<path d="M194.372 47.872C191.471 47.872 188.847 47.232 186.5 45.952C184.196 44.6293 182.361 42.688 180.996 40.128C179.673 37.568 179.012 34.368 179.012 30.528C179.012 26.688 179.695 23.488 181.06 20.928C182.468 18.368 184.324 16.448 186.628 15.168C188.975 13.888 191.556 13.248 194.372 13.248C197.7 13.248 200.644 13.9733 203.204 15.424C205.764 16.8747 207.791 18.9013 209.284 21.504C210.777 24.064 211.524 27.072 211.524 30.528C211.524 33.984 210.777 37.0133 209.284 39.616C207.791 42.2187 205.764 44.2453 203.204 45.696C200.644 47.1467 197.7 47.872 194.372 47.872ZM176.388 47.488V0H182.532V22.592L181.892 30.464L182.276 38.336V47.488H176.388ZM193.86 42.496C196.036 42.496 197.977 42.0053 199.684 41.024C201.433 40.0427 202.799 38.656 203.78 36.864C204.804 35.0293 205.316 32.9173 205.316 30.528C205.316 28.096 204.804 26.0053 203.78 24.256C202.799 22.464 201.433 21.0773 199.684 20.096C197.977 19.1147 196.036 18.624 193.86 18.624C191.727 18.624 189.785 19.1147 188.036 20.096C186.329 21.0773 184.964 22.464 183.94 24.256C182.959 26.0053 182.468 28.096 182.468 30.528C182.468 32.9173 182.959 35.0293 183.94 36.864C184.964 38.656 186.329 40.0427 188.036 41.024C189.785 42.0053 191.727 42.496 193.86 42.496Z" fill="#8A57C9"/>
<path d="M150.291 47.872C146.878 47.872 143.848 47.1254 141.203 45.632C138.558 44.1387 136.467 42.0907 134.931 39.488C133.395 36.8427 132.627 33.8561 132.627 30.528C132.627 27.1574 133.395 24.1707 134.931 21.568C136.467 18.9654 138.558 16.9387 141.203 15.488C143.848 13.9947 146.878 13.248 150.291 13.248C153.662 13.248 156.67 13.9947 159.315 15.488C162.003 16.9387 164.094 18.9654 165.587 21.568C167.123 24.128 167.891 27.1147 167.891 30.528C167.891 33.8987 167.123 36.8854 165.587 39.488C164.094 42.0907 162.003 44.1387 159.315 45.632C156.67 47.1254 153.662 47.872 150.291 47.872ZM150.291 42.496C152.467 42.496 154.408 42.0054 156.115 41.024C157.864 40.0427 159.23 38.656 160.211 36.864C161.192 35.0294 161.683 32.9174 161.683 30.528C161.683 28.096 161.192 26.0054 160.211 24.256C159.23 22.464 157.864 21.0774 156.115 20.096C154.408 19.1147 152.467 18.624 150.291 18.624C148.115 18.624 146.174 19.1147 144.467 20.096C142.76 21.0774 141.395 22.464 140.371 24.256C139.347 26.0054 138.835 28.096 138.835 30.528C138.835 32.9174 139.347 35.0294 140.371 36.864C141.395 38.656 142.76 40.0427 144.467 41.024C146.174 42.0054 148.115 42.496 150.291 42.496Z" fill="#8A57C9"/>
<path d="M110.312 13.248C113.086 13.248 115.518 13.7813 117.608 14.848C119.742 15.9147 121.406 17.536 122.6 19.712C123.795 21.888 124.392 24.64 124.392 27.968V47.488H118.248V28.672C118.248 25.3867 117.438 22.912 115.816 21.248C114.238 19.584 111.998 18.752 109.096 18.752C106.92 18.752 105.022 19.1787 103.4 20.032C101.779 20.8853 100.52 22.144 99.6244 23.808C98.7711 25.472 98.3444 27.5413 98.3444 30.016V47.488H92.2004V0H98.3444V22.72L97.1284 20.288C98.2378 18.0693 99.9444 16.3413 102.248 15.104C104.552 13.8667 107.24 13.248 110.312 13.248Z" fill="#8A57C9"/>
<path d="M57.7549 39.296L57.8829 31.424L77.4029 13.568H84.8269L69.8509 28.288L66.5229 31.104L57.7549 39.296ZM52.7629 47.488V0H58.9069V47.488H52.7629ZM78.6829 47.488L65.3709 30.976L69.3389 26.048L86.2349 47.488H78.6829Z" fill="#8A57C9"/>
<path d="M0 47.488L20.288 2.68799H26.624L46.976 47.488H40.256L22.144 6.27199H24.704L6.592 47.488H0ZM8.64 36.288L10.368 31.168H35.584L37.44 36.288H8.64Z" fill="#8A57C9"/>
</svg>
