<svg width="37" height="36" viewBox="0 0 37 36" fill="none" xmlns="http://www.w3.org/2000/svg">
<path d="M27.7852 17.1264H6.29514C5.98848 17.1264 5.69438 17.2449 5.47754 17.4559C5.2607 17.6669 5.13889 17.9531 5.13889 18.2514C5.13889 18.5498 5.2607 18.8359 5.47754 19.0469C5.69438 19.2579 5.98848 19.3764 6.29514 19.3764H27.7852L19.3515 27.5799C19.1344 27.7912 19.0124 28.0777 19.0124 28.3764C19.0124 28.6752 19.1344 28.9617 19.3515 29.1729C19.5686 29.3842 19.8631 29.5028 20.1701 29.5028C20.4772 29.5028 20.7716 29.3842 20.9888 29.1729L31.395 19.0479C31.5027 18.9434 31.5881 18.8193 31.6464 18.6826C31.7047 18.5459 31.7347 18.3994 31.7347 18.2514C31.7347 18.1034 31.7047 17.9569 31.6464 17.8202C31.5881 17.6836 31.5027 17.5594 31.395 17.4549L20.9888 7.32992C20.7716 7.11868 20.4772 7 20.1701 7C19.8631 7 19.5686 7.11868 19.3515 7.32992C19.1344 7.54117 19.0124 7.82768 19.0124 8.12642C19.0124 8.42517 19.1344 8.71168 19.3515 8.92292L27.7852 17.1264Z" fill="#31332C"/>
</svg>
