<svg width="37" height="36" viewBox="0 0 37 36" fill="none" xmlns="http://www.w3.org/2000/svg">
<path d="M9.72869 16.875H31.2188C31.5254 16.875 31.8195 16.9935 32.0363 17.2045C32.2532 17.4155 32.375 17.7016 32.375 18C32.375 18.2984 32.2532 18.5845 32.0363 18.7955C31.8195 19.0065 31.5254 19.125 31.2188 19.125H9.72869L18.1624 27.3285C18.3795 27.5398 18.5015 27.8263 18.5015 28.125C18.5015 28.4238 18.3795 28.7103 18.1624 28.9215C17.9453 29.1328 17.6508 29.2514 17.3438 29.2514C17.0367 29.2514 16.7422 29.1328 16.5251 28.9215L6.11888 18.7965C6.0112 18.692 5.92577 18.5679 5.86748 18.4312C5.80919 18.2945 5.77918 18.148 5.77918 18C5.77918 17.852 5.80919 17.7055 5.86748 17.5688C5.92577 17.4322 6.0112 17.308 6.11888 17.2035L16.5251 7.07852C16.7422 6.86727 17.0367 6.7486 17.3438 6.7486C17.6508 6.7486 17.9453 6.86727 18.1624 7.07852C18.3795 7.28976 18.5015 7.57627 18.5015 7.87502C18.5015 8.17376 18.3795 8.46027 18.1624 8.67152L9.72869 16.875Z" fill="#31332C"/>
</svg>
