<svg width="65" height="86" viewBox="0 0 65 86" fill="none" xmlns="http://www.w3.org/2000/svg">
<path d="M29.8125 19.1875C30.4375 18.7708 31.0312 18.2708 31.5938 17.6875C32.1562 17.1042 32.6562 16.4583 33.0938 15.75C33.5312 15.0208 33.875 14.25 34.125 13.4375C34.375 12.6042 34.5 11.7396 34.5 10.8438C34.5 9.48958 34.1979 8.27083 33.5938 7.1875C33.0104 6.08333 32.2083 5.15625 31.1875 4.40625C30.1667 3.63542 28.9792 3.05208 27.625 2.65625C26.2917 2.23958 24.875 2.03125 23.375 2.03125C21.5 2.03125 19.6771 2.29167 17.9062 2.8125C16.1354 3.3125 14.4688 4.02083 12.9062 4.9375C11.3438 5.85417 9.90625 6.95833 8.59375 8.25C7.30208 9.54167 6.17708 10.9688 5.21875 12.5312C4.28125 14.0938 3.55208 15.7708 3.03125 17.5625C2.51042 19.3542 2.25 21.2188 2.25 23.1562C2.25 24.4896 2.36458 25.7708 2.59375 27C2.82292 28.2292 3.10417 29.4375 3.4375 30.625C3.77083 31.8125 4.13542 32.9896 4.53125 34.1562C4.94792 35.3021 5.32292 36.4583 5.65625 37.625C5.98958 38.7917 6.27083 39.9792 6.5 41.1875C6.72917 42.3958 6.84375 43.6354 6.84375 44.9062C6.84375 45.2188 6.82292 45.5312 6.78125 45.8438C6.76042 46.1562 6.69792 46.4583 6.59375 46.75C7.30208 47.0208 8 47.3438 8.6875 47.7188C9.39583 48.0729 10.0833 48.4167 10.75 48.75C11.4375 49.0625 12.1042 49.3333 12.75 49.5625C13.3958 49.7917 14.0312 49.9062 14.6562 49.9062C15.3021 49.9062 15.8542 49.8125 16.3125 49.625C16.7917 49.4583 17.1979 49.2083 17.5312 48.875C17.8646 48.5417 18.1458 48.1562 18.375 47.7188C18.625 47.2812 18.8333 46.7917 19 46.25L19.6562 46.375C19.0104 48.2917 18.2083 49.6458 17.25 50.4375C16.2917 51.2292 15.125 51.625 13.75 51.625C12.9792 51.625 12.2396 51.5104 11.5312 51.2812C10.8438 51.0729 10.1771 50.8021 9.53125 50.4688C8.90625 50.1562 8.30208 49.8125 7.71875 49.4375C7.13542 49.0625 6.57292 48.7292 6.03125 48.4375C5.63542 49.1667 5.125 49.7917 4.5 50.3125C3.875 50.8542 3.14583 51.125 2.3125 51.125C1.58333 51.125 1.01042 50.9167 0.59375 50.5C0.197917 50.0833 0 49.6458 0 49.1875C0 48.75 0.104167 48.3438 0.3125 47.9688C0.520833 47.5938 0.791667 47.2708 1.125 47C1.47917 46.7292 1.86458 46.5208 2.28125 46.375C2.71875 46.2083 3.15625 46.125 3.59375 46.125C4.28125 46.125 5 46.25 5.75 46.5C5.75 46.375 5.76042 46.2604 5.78125 46.1562C5.80208 46.0312 5.8125 45.9167 5.8125 45.8125C5.8125 44.7083 5.66667 43.5938 5.375 42.4688C5.10417 41.3229 4.75 40.1771 4.3125 39.0312C3.89583 37.8646 3.4375 36.6875 2.9375 35.5C2.4375 34.2917 1.96875 33.0729 1.53125 31.8438C1.11458 30.6146 0.760417 29.3646 0.46875 28.0938C0.197917 26.8021 0.0625 25.4896 0.0625 24.1562C0.0625 22.0938 0.364583 20.0729 0.96875 18.0938C1.59375 16.1146 2.45833 14.2396 3.5625 12.4688C4.66667 10.6771 5.96875 9.03125 7.46875 7.53125C8.98958 6.03125 10.6458 4.73958 12.4375 3.65625C14.25 2.55208 16.1562 1.69792 18.1562 1.09375C20.1771 0.46875 22.2292 0.15625 24.3125 0.15625C26.2708 0.15625 27.9896 0.40625 29.4688 0.90625C30.9688 1.40625 32.2188 2.09375 33.2188 2.96875C34.2188 3.84375 34.9688 4.875 35.4688 6.0625C35.9688 7.25 36.2188 8.53125 36.2188 9.90625C36.2188 10.9688 36.0625 11.9583 35.75 12.875C35.4375 13.7708 35.0104 14.6146 34.4688 15.4062C33.9271 16.1979 33.2812 16.9375 32.5312 17.625C31.8021 18.3125 31.0104 18.9583 30.1562 19.5625L29.8125 19.1875ZM2.9375 49.4375C3.47917 49.4375 3.92708 49.2917 4.28125 49C4.65625 48.7292 4.95833 48.3854 5.1875 47.9688C4.79167 47.7812 4.40625 47.625 4.03125 47.5C3.65625 47.3542 3.29167 47.2812 2.9375 47.2812C2.45833 47.2812 2.10417 47.4062 1.875 47.6562C1.64583 47.9062 1.53125 48.1667 1.53125 48.4375C1.53125 48.7292 1.64583 48.9688 1.875 49.1562C2.10417 49.3438 2.45833 49.4375 2.9375 49.4375ZM28.9062 47.0312C29.4062 47.0312 29.8958 46.9271 30.375 46.7188C30.8542 46.4896 31.2812 46.1667 31.6562 45.75C32.0312 45.3125 32.3229 44.7812 32.5312 44.1562C32.7604 43.5312 32.875 42.8021 32.875 41.9688C32.875 41.2812 32.7917 40.6354 32.625 40.0312C32.4583 39.4062 32.2083 38.8646 31.875 38.4062C31.5625 37.9479 31.1458 37.5833 30.625 37.3125C30.125 37.0417 29.5312 36.9062 28.8438 36.9062C28.3646 36.9062 27.8854 37 27.4062 37.1875C26.9271 37.3542 26.5 37.6354 26.125 38.0312C25.75 38.4062 25.4479 38.8958 25.2188 39.5C24.9896 40.0833 24.875 40.7917 24.875 41.625C24.875 42.2917 24.9583 42.9479 25.125 43.5938C25.2917 44.2188 25.5312 44.7917 25.8438 45.3125C26.1771 45.8333 26.5938 46.25 27.0938 46.5625C27.6146 46.875 28.2188 47.0312 28.9062 47.0312ZM27.8125 48.625C26.4375 48.625 25.3125 48.1771 24.4375 47.2812C23.5625 46.3646 23.125 45.0417 23.125 43.3125C23.125 42.1458 23.3438 41.0729 23.7812 40.0938C24.2188 39.0938 24.7812 38.2396 25.4688 37.5312C26.1771 36.8021 26.9583 36.2396 27.8125 35.8438C28.6667 35.4479 29.5 35.25 30.3125 35.25C31.625 35.25 32.6771 35.6979 33.4688 36.5938C34.2604 37.4896 34.6562 38.8125 34.6562 40.5625C34.6562 41.7292 34.4479 42.8021 34.0312 43.7812C33.6354 44.7604 33.1042 45.6146 32.4375 46.3438C31.7917 47.0521 31.0625 47.6146 30.25 48.0312C29.4375 48.4271 28.625 48.625 27.8125 48.625ZM47.625 35.25C48.2083 35.25 48.6979 35.2917 49.0938 35.375C49.4896 35.4583 49.8021 35.5729 50.0312 35.7188C50.2604 35.8438 50.4167 35.9896 50.5 36.1562C50.6042 36.3021 50.6562 36.4479 50.6562 36.5938C50.6562 36.8229 50.5417 37.0833 50.3125 37.375C50.1042 37.6667 49.9167 37.8125 49.75 37.8125C49.6667 37.8125 49.5521 37.7812 49.4062 37.7188C49.2812 37.6354 49.0833 37.5625 48.8125 37.5C48.5625 37.4167 48.2396 37.3438 47.8438 37.2812C47.4688 37.1979 46.9896 37.1562 46.4062 37.1562C44.0104 37.1562 42.1562 37.6875 40.8438 38.75C39.5312 39.7917 38.875 41.2292 38.875 43.0625C38.875 43.375 38.9375 43.7188 39.0625 44.0938C39.2083 44.4688 39.4167 44.8125 39.6875 45.125C39.9792 45.4375 40.3438 45.7083 40.7812 45.9375C41.2396 46.1458 41.7917 46.25 42.4375 46.25C43.6667 46.25 44.7083 46.0208 45.5625 45.5625C46.4375 45.1042 47.1667 44.5833 47.75 44C47.75 43.8958 47.7604 43.8021 47.7812 43.7188C47.8021 43.6354 47.8333 43.5417 47.875 43.4375C48.0208 42.7292 48.2083 42.0729 48.4375 41.4688C48.6875 40.8438 48.9479 40.3125 49.2188 39.875C49.4896 39.4167 49.7604 39.0625 50.0312 38.8125C50.3021 38.5625 50.5312 38.4375 50.7188 38.4375C50.9479 38.4375 51.0729 38.5104 51.0938 38.6562C51.1354 38.8021 51.1562 38.9271 51.1562 39.0312C51.1562 39.4062 50.9375 40.0312 50.5 40.9062C50.0833 41.7604 49.5104 42.6667 48.7812 43.625C48.6146 44.625 48.4479 45.8854 48.2812 47.4062C48.1146 48.9271 47.9583 50.6667 47.8125 52.625C47.6667 54.5833 47.5417 56.7292 47.4375 59.0625C47.3542 61.4167 47.3125 63.9062 47.3125 66.5312C47.3125 68.7188 47.3542 70.8229 47.4375 72.8438C47.5208 74.8854 47.6042 76.6875 47.6875 78.25C47.7917 79.8125 47.8854 81.0729 47.9688 82.0312C48.0521 83.0104 48.0938 83.5417 48.0938 83.625C48.0938 83.9167 48.0625 84.1354 48 84.2812C47.9583 84.4479 47.8542 84.6146 47.6875 84.7812C47.5625 84.9062 47.4062 85.0417 47.2188 85.1875C47.0521 85.3333 46.875 85.4062 46.6875 85.4062C46.4375 85.4062 46.2604 85.3229 46.1562 85.1562C46.0312 85.0104 45.8958 84.7083 45.75 84.25C45.6042 83.7917 45.4688 83.0208 45.3438 81.9375C45.2396 80.875 45.1458 79.4167 45.0625 77.5625C44.9792 75.7083 44.9375 73.2917 44.9375 70.3125C44.9375 67.6875 45.0208 65.1458 45.1875 62.6875C45.3542 60.25 45.5625 57.9479 45.8125 55.7812C46.0833 53.6354 46.375 51.6458 46.6875 49.8125C47 48 47.2917 46.4062 47.5625 45.0312C46.6875 45.9062 45.7188 46.6458 44.6562 47.25C43.6146 47.8542 42.5 48.1562 41.3125 48.1562C40.7708 48.1562 40.2396 48.0833 39.7188 47.9375C39.2188 47.7708 38.7708 47.5208 38.375 47.1875C38 46.8542 37.6979 46.4375 37.4688 45.9375C37.2396 45.4375 37.125 44.8542 37.125 44.1875C37.125 43.2917 37.375 42.3229 37.875 41.2812C38.3958 40.2188 39.1146 39.25 40.0312 38.375C40.9688 37.4792 42.0833 36.7396 43.375 36.1562C44.6667 35.5521 46.0833 35.25 47.625 35.25ZM49.375 41.25C49.2917 41.3542 49.2188 41.5104 49.1562 41.7188C49.0938 41.9271 49.0312 42.1771 48.9688 42.4688C49.0521 42.3646 49.125 42.2812 49.1875 42.2188C49.25 42.1354 49.3021 42.0625 49.3438 42C49.3854 41.9167 49.4167 41.8438 49.4375 41.7812C49.5208 41.4896 49.5833 41.2604 49.625 41.0938C49.6667 40.9479 49.6771 40.875 49.6562 40.875C49.6354 40.8542 49.5417 40.9792 49.375 41.25ZM59.1562 47.0312C59.6562 47.0312 60.1458 46.9271 60.625 46.7188C61.1042 46.4896 61.5312 46.1667 61.9062 45.75C62.2812 45.3125 62.5729 44.7812 62.7812 44.1562C63.0104 43.5312 63.125 42.8021 63.125 41.9688C63.125 41.2812 63.0417 40.6354 62.875 40.0312C62.7083 39.4062 62.4583 38.8646 62.125 38.4062C61.8125 37.9479 61.3958 37.5833 60.875 37.3125C60.375 37.0417 59.7812 36.9062 59.0938 36.9062C58.6146 36.9062 58.1354 37 57.6562 37.1875C57.1771 37.3542 56.75 37.6354 56.375 38.0312C56 38.4062 55.6979 38.8958 55.4688 39.5C55.2396 40.0833 55.125 40.7917 55.125 41.625C55.125 42.2917 55.2083 42.9479 55.375 43.5938C55.5417 44.2188 55.7812 44.7917 56.0938 45.3125C56.4271 45.8333 56.8438 46.25 57.3438 46.5625C57.8646 46.875 58.4688 47.0312 59.1562 47.0312ZM58.0625 48.625C56.6875 48.625 55.5625 48.1771 54.6875 47.2812C53.8125 46.3646 53.375 45.0417 53.375 43.3125C53.375 42.1458 53.5938 41.0729 54.0312 40.0938C54.4688 39.0938 55.0312 38.2396 55.7188 37.5312C56.4271 36.8021 57.2083 36.2396 58.0625 35.8438C58.9167 35.4479 59.75 35.25 60.5625 35.25C61.875 35.25 62.9271 35.6979 63.7188 36.5938C64.5104 37.4896 64.9062 38.8125 64.9062 40.5625C64.9062 41.7292 64.6979 42.8021 64.2812 43.7812C63.8854 44.7604 63.3542 45.6146 62.6875 46.3438C62.0417 47.0521 61.3125 47.6146 60.5 48.0312C59.6875 48.4271 58.875 48.625 58.0625 48.625Z" fill="#8A57C9"/>
</svg>
