<svg width="40" height="40" viewBox="0 0 40 40" fill="none" xmlns="http://www.w3.org/2000/svg">
<path d="M29.4825 18.7501H6.25C5.91848 18.7501 5.60054 18.8818 5.36612 19.1162C5.1317 19.3507 5 19.6686 5 20.0001C5 20.3316 5.1317 20.6496 5.36612 20.884C5.60054 21.1184 5.91848 21.2501 6.25 21.2501H29.4825L20.365 30.3651C20.1303 30.5998 19.9984 30.9182 19.9984 31.2501C19.9984 31.5821 20.1303 31.9004 20.365 32.1351C20.5997 32.3698 20.9181 32.5017 21.25 32.5017C21.5819 32.5017 21.9003 32.3698 22.135 32.1351L33.385 20.8851C33.5014 20.769 33.5938 20.6311 33.6568 20.4792C33.7198 20.3273 33.7522 20.1645 33.7522 20.0001C33.7522 19.8357 33.7198 19.6729 33.6568 19.521C33.5938 19.3692 33.5014 19.2312 33.385 19.1151L22.135 7.86511C21.9003 7.6304 21.5819 7.49854 21.25 7.49854C20.9181 7.49854 20.5997 7.6304 20.365 7.86511C20.1303 8.09983 19.9984 8.41817 19.9984 8.75011C19.9984 9.08205 20.1303 9.4004 20.365 9.63511L29.4825 18.7501Z" fill="#63BD5B"/>
</svg>
