<svg width="60" height="60" viewBox="0 0 60 60" fill="none" xmlns="http://www.w3.org/2000/svg">
<path d="M44.2237 28.125H9.375C8.87772 28.125 8.40081 28.3226 8.04918 28.6742C7.69754 29.0259 7.5 29.5028 7.5 30C7.5 30.4973 7.69754 30.9742 8.04918 31.3259C8.40081 31.6775 8.87772 31.875 9.375 31.875H44.2237L30.5475 45.5476C30.1954 45.8996 29.9976 46.3771 29.9976 46.875C29.9976 47.373 30.1954 47.8505 30.5475 48.2025C30.8996 48.5546 31.3771 48.7524 31.875 48.7524C32.3729 48.7524 32.8504 48.5546 33.2025 48.2025L50.0775 31.3275C50.2521 31.1534 50.3906 30.9465 50.4852 30.7187C50.5797 30.4909 50.6283 30.2467 50.6283 30C50.6283 29.7534 50.5797 29.5092 50.4852 29.2814C50.3906 29.0536 50.2521 28.8467 50.0775 28.6725L33.2025 11.7975C32.8504 11.4455 32.3729 11.2477 31.875 11.2477C31.3771 11.2477 30.8996 11.4455 30.5475 11.7975C30.1954 12.1496 29.9976 12.6271 29.9976 13.125C29.9976 13.623 30.1954 14.1005 30.5475 14.4525L44.2237 28.125Z" fill="#8A57C9"/>
</svg>
