<svg width="16" height="16" viewBox="0 0 16 16" fill="none" xmlns="http://www.w3.org/2000/svg">
<path d="M1.69507 1.57495H5.23056L6.36994 4.42381L4.53921 5.6443C4.4314 5.71623 4.34301 5.81365 4.28189 5.92794C4.22076 6.04222 4.18879 6.16982 4.18881 6.29942C4.19117 6.37344 4.18881 6.30021 4.18881 6.30021V6.31675C4.18922 6.35196 4.1908 6.38715 4.19353 6.42226C4.19826 6.48683 4.20613 6.57423 4.22109 6.68211C4.2518 6.89471 4.31086 7.18763 4.42582 7.53251C4.65732 8.22544 5.11087 9.1223 5.99435 10.0058C6.87782 10.8893 7.77469 11.3428 8.46682 11.5743C8.8125 11.6893 9.10463 11.7475 9.3188 11.779C9.43969 11.7959 9.56139 11.8064 9.68338 11.8105L9.69361 11.8113H9.69991C9.69991 11.8113 9.7881 11.8066 9.7007 11.8113C9.84689 11.8112 9.99018 11.7705 10.1145 11.6936C10.2388 11.6166 10.3393 11.5066 10.4046 11.3759L10.9322 10.3207L14.4252 10.9034V14.305C12.7629 14.5452 8.27312 14.7822 4.74551 11.2546C1.2179 7.727 1.45413 3.23639 1.69507 1.57495ZM5.82112 6.68211L7.24397 5.73406C7.54456 5.53356 7.76707 5.2358 7.87416 4.89071C7.98126 4.54563 7.96643 4.17421 7.83217 3.83876L6.69278 0.9899C6.57586 0.697695 6.37407 0.447227 6.11343 0.270805C5.8528 0.0943826 5.54529 0.000100973 5.23056 0.000122074H1.65413C0.938371 0.000122074 0.265133 0.49698 0.147809 1.27337C-0.119912 3.03875 -0.482909 8.253 3.63211 12.368C7.74713 16.483 12.9614 16.1192 14.7268 15.8523C15.5031 15.7342 16 15.0618 16 14.346V10.9034C16 10.5306 15.8678 10.1699 15.6269 9.88544C15.386 9.60097 15.0519 9.41118 14.6842 9.34986L11.1913 8.76796C10.8591 8.71251 10.5178 8.76503 10.2177 8.9178C9.91748 9.07058 9.6742 9.31557 9.52353 9.61679L9.25109 10.1625C9.15474 10.1387 9.05939 10.1112 8.96526 10.0798C8.47706 9.91758 7.7991 9.58372 7.10775 8.89237C6.4164 8.20103 6.08254 7.52306 5.92033 7.03408C5.88161 6.91849 5.84876 6.80102 5.8219 6.68211H5.82112Z" fill="#8A57C9"/>
</svg>
